<svg width="525" height="114" viewBox="0 0 525 114" fill="none" xmlns="http://www.w3.org/2000/svg">
<path d="M152.866 79.8H165.002V53.808H177.279C178.261 53.808 178.823 54.3552 178.823 55.3128V74.8068C178.823 78.2952 180.366 79.8 183.944 79.8H195.168V69.882H192.503C191.52 69.882 190.959 69.3348 190.959 68.3772V49.5672C190.959 46.0788 189.416 44.574 185.838 44.574H165.002V44.3004C165.002 41.2224 168.37 40.6752 170.755 40.6752C172.088 40.6752 173.07 40.812 173.07 40.812V30.8256C173.07 30.8256 171.597 30.6204 169.422 30.6204C163.599 30.6204 152.866 32.1936 152.866 43.7532V44.574H148.446V53.808H152.866V79.8ZM179.735 40.47H189.907V30.894H179.735V40.47Z" fill="white"/>
<path d="M202.261 79.8H214.398V64.2048C214.398 62.4948 214.608 60.9216 215.099 59.5536C216.152 56.544 218.467 54.492 222.255 54.492C224.921 54.492 226.254 55.86 226.254 59.1432V74.8068C226.254 78.2952 227.797 79.8 231.375 79.8H242.6V69.882H239.934C238.952 69.882 238.39 69.3348 238.39 68.3772V56.9544C238.39 47.0364 232.708 43.7532 225.412 43.7532C219.028 43.7532 215.66 47.1048 213.977 49.8408H213.836C213.836 49.8408 213.907 49.362 213.907 49.02V48.5412C213.907 46.1472 212.153 44.574 208.856 44.574H198.052V54.492H200.718C201.7 54.492 202.261 55.0392 202.261 55.9968V79.8Z" fill="white"/>
<path d="M245.749 69.2664C245.749 76.2432 251.292 80.6208 258.026 80.6208C265.603 80.6208 268.129 75.4908 268.129 75.4908H268.269C268.269 75.4908 268.269 75.8328 268.269 76.1064C268.269 77.6796 269.532 79.8 273.039 79.8H283.562V69.882H280.897C279.914 69.882 279.353 69.3348 279.353 68.3772V58.1172C279.353 50.046 275.214 43.7532 262.586 43.7532C258.447 43.7532 248.205 44.1636 248.205 52.0296V55.9284H259.429V54.3552C259.429 52.9872 261.043 52.6452 262.586 52.6452C265.603 52.6452 267.217 53.8764 267.217 57.228V57.6384H266.725C261.113 57.6384 245.749 58.8012 245.749 69.2664ZM257.956 68.6508C257.956 65.8464 262.376 64.8204 266.234 64.8204H267.357V65.3676C267.357 68.2404 264.551 71.592 261.394 71.592C259.008 71.592 257.956 70.2924 257.956 68.6508Z" fill="white"/>
<path d="M290.015 74.8068C290.015 78.2952 291.559 79.8 295.137 79.8H306.361V69.882H303.695C302.713 69.882 302.152 69.3348 302.152 68.3772V35.8872C302.152 32.3988 300.609 30.894 297.031 30.894H285.806V40.812H288.472C289.454 40.812 290.015 41.3592 290.015 42.3168V74.8068Z" fill="white"/>
<path d="M313.035 79.8H324.4V78.9792C324.4 77.8848 324.329 76.9956 324.329 76.9956H324.47C324.47 76.9956 327.697 80.6208 334.362 80.6208C343.973 80.6208 351.198 73.3704 351.198 62.2212C351.198 51.2772 344.744 43.7532 334.923 43.7532C328.539 43.7532 325.171 47.1732 325.171 47.1732H325.031C325.031 47.1732 325.171 45.942 325.171 44.1636V35.8872C325.171 32.3988 323.628 30.894 320.05 30.894H308.826V40.812H311.491C312.474 40.812 313.035 41.3592 313.035 42.3168V79.8ZM324.821 62.4264C324.821 56.3388 328.258 53.7396 331.906 53.7396C336.115 53.7396 338.992 57.1596 338.992 62.4264C338.992 67.83 335.694 70.8396 331.906 70.8396C327.136 70.8396 324.821 66.6672 324.821 62.4264Z" fill="white"/>
<path d="M359.586 40.47H369.758V30.894H359.586V40.47ZM358.674 74.8068C358.674 78.2952 360.217 79.8 363.795 79.8H375.02V69.882H372.354C371.372 69.882 370.81 69.3348 370.81 68.3772V49.5672C370.81 46.0788 369.267 44.574 365.689 44.574H354.465V54.492H357.13C358.112 54.492 358.674 55.0392 358.674 55.9968V74.8068Z" fill="white"/>
<path d="M378.311 62.2896C378.311 73.302 387.361 80.6208 398.726 80.6208C410.091 80.6208 419.14 73.302 419.14 62.2896C419.14 51.2088 410.091 43.7532 398.655 43.7532C387.361 43.7532 378.311 51.2088 378.311 62.2896ZM390.518 62.2896C390.518 56.9544 394.306 53.6028 398.726 53.6028C403.145 53.6028 406.934 56.9544 406.934 62.2896C406.934 67.5564 403.145 70.7712 398.726 70.7712C394.306 70.7712 390.518 67.5564 390.518 62.2896Z" fill="white"/>
<path d="M426.425 79.8H438.562V65.2308C438.562 63.726 438.772 62.2896 439.053 60.99C439.895 57.228 441.929 54.492 445.507 54.492C447.822 54.492 448.313 56.3388 448.313 58.938V79.8H460.45V65.2308C460.45 63.7944 460.59 62.4948 460.871 61.2636C461.642 57.3648 463.747 54.492 467.395 54.492C469.71 54.492 470.201 56.3388 470.201 58.938V74.8068C470.201 78.2952 471.744 79.8 475.322 79.8H486.547V69.882H483.881C482.899 69.882 482.338 69.3348 482.338 68.3772V56.9544C482.338 47.2416 477.216 43.7532 470.622 43.7532C465.22 43.7532 460.941 46.7628 459.047 49.704H458.906C457.012 45.7368 453.364 43.7532 448.804 43.7532C443.122 43.7532 439.894 47.3784 438.211 49.8408H438.07C438.07 49.8408 438.141 49.362 438.141 49.02V48.5412C438.141 46.1472 436.387 44.574 433.09 44.574H422.216V54.492H424.882C425.864 54.492 426.425 55.0392 426.425 55.9968V79.8Z" fill="white"/>
<path d="M489.502 62.1528C489.502 71.5236 496.447 80.6208 509.356 80.6208C518.967 80.6208 524.79 75.012 524.79 75.012L519.949 67.0776C519.949 67.0776 515.529 70.7712 510.338 70.7712C506.479 70.7712 502.831 68.7876 501.919 64.3416H524.719C524.719 64.3416 525 61.9476 525 60.7848C525 51.0036 518.967 43.7532 508.303 43.7532C496.658 43.7532 489.502 51.8244 489.502 62.1528ZM502.27 57.1596C503.042 54.5604 504.796 52.6452 508.303 52.6452C510.829 52.6452 512.583 54.9708 512.583 57.1596H502.27Z" fill="white"/>
<path d="M112.328 34.8118C109.383 28.0245 105.169 21.9284 99.8015 16.6938C94.4341 11.4606 88.1818 7.3502 81.2188 4.48002C74.0101 1.50777 66.3524 0 58.4616 0C50.5709 0 42.9148 1.50777 35.7044 4.48002C28.7431 7.35175 22.4907 11.4606 17.1218 16.6938C11.7545 21.9269 7.53868 28.0229 4.5949 34.8118C1.54644 41.8419 0 49.3065 0 57C0 64.6935 1.54644 72.1581 4.5949 79.1882C7.54027 85.9755 11.7545 92.0716 17.1218 97.3062C22.4892 102.539 28.7415 106.65 35.7044 109.52C42.9148 112.494 50.5709 114 58.4616 114C66.3524 114 74.0085 112.492 81.2188 109.52C88.1802 106.648 94.4325 102.539 99.8015 97.3062C105.17 92.0731 109.385 85.9771 112.328 79.1882C115.378 72.1581 116.923 64.6935 116.923 57C116.925 49.3065 115.378 41.8419 112.328 34.8118ZM58.4616 39.4727C53.797 39.4727 50.003 35.7736 50.003 31.2256C50.003 26.6775 53.797 22.9785 58.4616 22.9785C63.1263 22.9785 66.9203 26.6775 66.9203 31.2256C66.9203 35.7736 63.1263 39.4727 58.4616 39.4727ZM87.8947 98.1985V65.7992H97.7459C99.0259 65.7992 100.201 65.1126 100.807 64.0131C101.411 62.9136 101.348 61.579 100.639 60.5398L87.3158 40.9851C86.6718 40.0403 85.5854 39.4727 84.4228 39.4727C83.2601 39.4727 82.1737 40.0403 81.5297 40.9851L68.2066 60.5398C67.4976 61.579 67.4342 62.9136 68.0384 64.0131C68.6427 65.1126 69.8196 65.7992 71.0996 65.7992H80.9508V102.185C75.1378 104.947 68.7141 106.67 61.9368 107.112V45.8595C68.7649 44.3192 73.8689 38.3423 73.8689 31.224C73.8689 22.9413 66.9583 16.2035 58.4632 16.2035C49.9681 16.2035 43.0576 22.9413 43.0576 31.224C43.0576 38.3423 48.1616 44.3192 54.9897 45.8595V107.112C48.3821 106.681 42.1122 105.031 36.4134 102.389V77.7794H43.0655C44.9831 77.7794 46.539 76.2639 46.539 74.3927V54.6742C46.539 52.8045 44.9846 51.2875 43.0655 51.2875H22.8397C20.9221 51.2875 19.3661 52.803 19.3661 54.6742V74.3927C19.3661 76.2624 20.9205 77.7794 22.8397 77.7794H29.4664V98.4955C15.8815 89.4426 6.94548 74.2211 6.94548 57C6.94548 29.3049 30.0548 6.77183 58.4616 6.77183C86.8685 6.77183 109.978 29.3034 109.978 57C109.978 74.034 101.235 89.1117 87.8947 98.1985ZM77.5756 59.0258L84.4228 48.9771L91.2699 59.0258H77.5756ZM26.3132 71.0076V58.0609H39.5919V71.0076H26.3132Z" fill="white"/>
</svg>
